<mxfile host="Electron" modified="2024-11-23T20:54:16.799Z" agent="Mozilla/5.0 (X11; Linux x86_64) AppleWebKit/537.36 (KHTML, like Gecko) draw.io/21.6.5 Chrome/114.0.5735.243 Electron/25.3.1 Safari/537.36" etag="VUeF42kX7HLbGBNjcVKa" version="21.6.5" type="device">
  <diagram name="Page-1" id="tfA3h8iXoFlMt_qG9hfa">
    <mxGraphModel dx="576" dy="389" grid="1" gridSize="10" guides="1" tooltips="1" connect="1" arrows="1" fold="1" page="1" pageScale="1" pageWidth="827" pageHeight="1169" math="0" shadow="0">
      <root>
        <mxCell id="0" />
        <mxCell id="1" parent="0" />
        <mxCell id="l3h3YgJQ-9_s06tuVZpz-1" value="" style="endArrow=none;html=1;rounded=0;entryX=0;entryY=0.3;entryDx=0;entryDy=0;entryPerimeter=0;" parent="1" target="l3h3YgJQ-9_s06tuVZpz-13" edge="1">
          <mxGeometry width="50" height="50" relative="1" as="geometry">
            <mxPoint x="110" y="70" as="sourcePoint" />
            <mxPoint x="420" y="70" as="targetPoint" />
          </mxGeometry>
        </mxCell>
        <mxCell id="l3h3YgJQ-9_s06tuVZpz-8" value="" style="endArrow=none;html=1;rounded=0;" parent="1" source="l3h3YgJQ-9_s06tuVZpz-7" edge="1">
          <mxGeometry width="50" height="50" relative="1" as="geometry">
            <mxPoint x="180" y="120" as="sourcePoint" />
            <mxPoint x="340" y="120" as="targetPoint" />
          </mxGeometry>
        </mxCell>
        <mxCell id="l3h3YgJQ-9_s06tuVZpz-9" value="" style="endArrow=none;html=1;rounded=0;entryX=0;entryY=0.5;entryDx=0;entryDy=0;exitX=1;exitY=0.5;exitDx=0;exitDy=0;" parent="1" source="l3h3YgJQ-9_s06tuVZpz-53" edge="1">
          <mxGeometry width="50" height="50" relative="1" as="geometry">
            <mxPoint x="160" y="130" as="sourcePoint" />
            <mxPoint x="180" y="130" as="targetPoint" />
          </mxGeometry>
        </mxCell>
        <mxCell id="l3h3YgJQ-9_s06tuVZpz-7" value="" style="shape=or;whiteSpace=wrap;html=1;" parent="1" vertex="1">
          <mxGeometry x="280" y="95" width="40" height="50" as="geometry" />
        </mxCell>
        <mxCell id="l3h3YgJQ-9_s06tuVZpz-10" value="" style="endArrow=none;html=1;rounded=0;entryX=0;entryY=0.5;entryDx=0;entryDy=0;exitX=1;exitY=0.667;exitDx=0;exitDy=0;exitPerimeter=0;" parent="1" edge="1">
          <mxGeometry width="50" height="50" relative="1" as="geometry">
            <mxPoint x="240" y="130.01999999999998" as="sourcePoint" />
            <mxPoint x="280" y="130" as="targetPoint" />
          </mxGeometry>
        </mxCell>
        <mxCell id="l3h3YgJQ-9_s06tuVZpz-11" value="" style="endArrow=none;html=1;rounded=0;entryX=0;entryY=0.5;entryDx=0;entryDy=0;" parent="1" edge="1">
          <mxGeometry width="50" height="50" relative="1" as="geometry">
            <mxPoint x="260" y="70" as="sourcePoint" />
            <mxPoint x="280" y="110" as="targetPoint" />
            <Array as="points">
              <mxPoint x="260" y="110" />
            </Array>
          </mxGeometry>
        </mxCell>
        <mxCell id="l3h3YgJQ-9_s06tuVZpz-13" value="" style="shape=or;whiteSpace=wrap;html=1;" parent="1" vertex="1">
          <mxGeometry x="440" y="55" width="40" height="50" as="geometry" />
        </mxCell>
        <mxCell id="l3h3YgJQ-9_s06tuVZpz-14" value="" style="endArrow=none;html=1;rounded=0;exitX=1;exitY=0.667;exitDx=0;exitDy=0;exitPerimeter=0;" parent="1" edge="1">
          <mxGeometry width="50" height="50" relative="1" as="geometry">
            <mxPoint x="400" y="119.83" as="sourcePoint" />
            <mxPoint x="420" y="120" as="targetPoint" />
          </mxGeometry>
        </mxCell>
        <mxCell id="l3h3YgJQ-9_s06tuVZpz-18" value="" style="group;fillColor=#fff2cc;strokeColor=#d6b656;dashed=1;dashPattern=1 2;" parent="1" vertex="1" connectable="0">
          <mxGeometry x="280" y="60" width="20" height="20" as="geometry" />
        </mxCell>
        <mxCell id="l3h3YgJQ-9_s06tuVZpz-19" value="" style="rounded=0;whiteSpace=wrap;html=1;fillColor=#fff2cc;strokeColor=#d6b656;dashed=1;dashPattern=1 2;" parent="l3h3YgJQ-9_s06tuVZpz-18" vertex="1">
          <mxGeometry width="20" height="20" as="geometry" />
        </mxCell>
        <mxCell id="l3h3YgJQ-9_s06tuVZpz-20" value="" style="triangle;whiteSpace=wrap;html=1;rotation=-90;fillColor=#fff2cc;strokeColor=#d6b656;dashed=1;dashPattern=1 2;" parent="l3h3YgJQ-9_s06tuVZpz-18" vertex="1">
          <mxGeometry x="7.5" y="12.5" width="5" height="10" as="geometry" />
        </mxCell>
        <mxCell id="l3h3YgJQ-9_s06tuVZpz-21" value="" style="group;fillColor=#fff2cc;strokeColor=#d6b656;dashed=1;dashPattern=1 2;" parent="1" vertex="1" connectable="0">
          <mxGeometry x="310" y="60" width="20" height="20" as="geometry" />
        </mxCell>
        <mxCell id="l3h3YgJQ-9_s06tuVZpz-22" value="" style="rounded=0;whiteSpace=wrap;html=1;fillColor=#fff2cc;strokeColor=#d6b656;dashed=1;dashPattern=1 2;" parent="l3h3YgJQ-9_s06tuVZpz-21" vertex="1">
          <mxGeometry width="20" height="20" as="geometry" />
        </mxCell>
        <mxCell id="l3h3YgJQ-9_s06tuVZpz-23" value="" style="triangle;whiteSpace=wrap;html=1;rotation=-90;fillColor=#fff2cc;strokeColor=#d6b656;dashed=1;dashPattern=1 2;" parent="l3h3YgJQ-9_s06tuVZpz-21" vertex="1">
          <mxGeometry x="7.5" y="12.5" width="5" height="10" as="geometry" />
        </mxCell>
        <mxCell id="l3h3YgJQ-9_s06tuVZpz-24" value="" style="group;fillColor=#fff2cc;strokeColor=#d6b656;dashed=1;dashPattern=1 2;" parent="1" vertex="1" connectable="0">
          <mxGeometry x="340" y="60" width="20" height="20" as="geometry" />
        </mxCell>
        <mxCell id="l3h3YgJQ-9_s06tuVZpz-25" value="" style="rounded=0;whiteSpace=wrap;html=1;fillColor=#fff2cc;strokeColor=#d6b656;dashed=1;dashPattern=1 2;" parent="l3h3YgJQ-9_s06tuVZpz-24" vertex="1">
          <mxGeometry width="20" height="20" as="geometry" />
        </mxCell>
        <mxCell id="l3h3YgJQ-9_s06tuVZpz-26" value="" style="triangle;whiteSpace=wrap;html=1;rotation=-90;fillColor=#fff2cc;strokeColor=#d6b656;dashed=1;dashPattern=1 2;" parent="l3h3YgJQ-9_s06tuVZpz-24" vertex="1">
          <mxGeometry x="7.5" y="12.5" width="5" height="10" as="geometry" />
        </mxCell>
        <mxCell id="l3h3YgJQ-9_s06tuVZpz-27" value="" style="group;fillColor=#fff2cc;strokeColor=#d6b656;dashed=1;dashPattern=1 2;" parent="1" vertex="1" connectable="0">
          <mxGeometry x="370" y="60" width="20" height="20" as="geometry" />
        </mxCell>
        <mxCell id="l3h3YgJQ-9_s06tuVZpz-28" value="" style="rounded=0;whiteSpace=wrap;html=1;fillColor=#fff2cc;strokeColor=#d6b656;dashed=1;dashPattern=1 2;" parent="l3h3YgJQ-9_s06tuVZpz-27" vertex="1">
          <mxGeometry width="20" height="20" as="geometry" />
        </mxCell>
        <mxCell id="l3h3YgJQ-9_s06tuVZpz-29" value="" style="triangle;whiteSpace=wrap;html=1;rotation=-90;fillColor=#fff2cc;strokeColor=#d6b656;dashed=1;dashPattern=1 2;" parent="l3h3YgJQ-9_s06tuVZpz-27" vertex="1">
          <mxGeometry x="7.5" y="12.5" width="5" height="10" as="geometry" />
        </mxCell>
        <mxCell id="l3h3YgJQ-9_s06tuVZpz-31" value="" style="group;fillColor=#fff2cc;strokeColor=#d6b656;dashed=1;dashPattern=1 2;" parent="1" vertex="1" connectable="0">
          <mxGeometry x="130" y="60" width="20" height="20" as="geometry" />
        </mxCell>
        <mxCell id="l3h3YgJQ-9_s06tuVZpz-32" value="" style="rounded=0;whiteSpace=wrap;html=1;fillColor=#fff2cc;strokeColor=#d6b656;dashed=1;dashPattern=1 2;" parent="l3h3YgJQ-9_s06tuVZpz-31" vertex="1">
          <mxGeometry width="20" height="20" as="geometry" />
        </mxCell>
        <mxCell id="l3h3YgJQ-9_s06tuVZpz-33" value="" style="triangle;whiteSpace=wrap;html=1;rotation=-90;fillColor=#fff2cc;strokeColor=#d6b656;dashed=1;dashPattern=1 2;" parent="l3h3YgJQ-9_s06tuVZpz-31" vertex="1">
          <mxGeometry x="7.5" y="12.5" width="5" height="10" as="geometry" />
        </mxCell>
        <mxCell id="l3h3YgJQ-9_s06tuVZpz-34" value="" style="group;fillColor=#fff2cc;strokeColor=#d6b656;dashed=1;dashPattern=1 2;" parent="1" vertex="1" connectable="0">
          <mxGeometry x="160" y="60" width="20" height="20" as="geometry" />
        </mxCell>
        <mxCell id="l3h3YgJQ-9_s06tuVZpz-35" value="" style="rounded=0;whiteSpace=wrap;html=1;fillColor=#fff2cc;strokeColor=#d6b656;dashed=1;dashPattern=1 2;" parent="l3h3YgJQ-9_s06tuVZpz-34" vertex="1">
          <mxGeometry width="20" height="20" as="geometry" />
        </mxCell>
        <mxCell id="l3h3YgJQ-9_s06tuVZpz-36" value="" style="triangle;whiteSpace=wrap;html=1;rotation=-90;fillColor=#fff2cc;strokeColor=#d6b656;dashed=1;dashPattern=1 2;" parent="l3h3YgJQ-9_s06tuVZpz-34" vertex="1">
          <mxGeometry x="7.5" y="12.5" width="5" height="10" as="geometry" />
        </mxCell>
        <mxCell id="l3h3YgJQ-9_s06tuVZpz-37" value="" style="group;fillColor=#fff2cc;strokeColor=#d6b656;dashed=1;dashPattern=1 2;" parent="1" vertex="1" connectable="0">
          <mxGeometry x="190" y="60" width="20" height="20" as="geometry" />
        </mxCell>
        <mxCell id="l3h3YgJQ-9_s06tuVZpz-38" value="" style="rounded=0;whiteSpace=wrap;html=1;fillColor=#fff2cc;strokeColor=#d6b656;dashed=1;dashPattern=1 2;" parent="l3h3YgJQ-9_s06tuVZpz-37" vertex="1">
          <mxGeometry width="20" height="20" as="geometry" />
        </mxCell>
        <mxCell id="l3h3YgJQ-9_s06tuVZpz-39" value="" style="triangle;whiteSpace=wrap;html=1;rotation=-90;fillColor=#fff2cc;strokeColor=#d6b656;dashed=1;dashPattern=1 2;" parent="l3h3YgJQ-9_s06tuVZpz-37" vertex="1">
          <mxGeometry x="7.5" y="12.5" width="5" height="10" as="geometry" />
        </mxCell>
        <mxCell id="l3h3YgJQ-9_s06tuVZpz-40" value="" style="group;fillColor=#fff2cc;strokeColor=#d6b656;dashed=1;dashPattern=1 2;" parent="1" vertex="1" connectable="0">
          <mxGeometry x="220" y="60" width="20" height="20" as="geometry" />
        </mxCell>
        <mxCell id="l3h3YgJQ-9_s06tuVZpz-41" value="" style="rounded=0;whiteSpace=wrap;html=1;fillColor=#fff2cc;strokeColor=#d6b656;dashed=1;dashPattern=1 2;" parent="l3h3YgJQ-9_s06tuVZpz-40" vertex="1">
          <mxGeometry width="20" height="20" as="geometry" />
        </mxCell>
        <mxCell id="l3h3YgJQ-9_s06tuVZpz-42" value="" style="triangle;whiteSpace=wrap;html=1;rotation=-90;fillColor=#fff2cc;strokeColor=#d6b656;dashed=1;dashPattern=1 2;" parent="l3h3YgJQ-9_s06tuVZpz-40" vertex="1">
          <mxGeometry x="7.5" y="12.5" width="5" height="10" as="geometry" />
        </mxCell>
        <mxCell id="l3h3YgJQ-9_s06tuVZpz-47" value="" style="group;fillColor=#dae8fc;strokeColor=#6c8ebf;" parent="1" vertex="1" connectable="0">
          <mxGeometry x="70" y="50" width="40" height="40" as="geometry" />
        </mxCell>
        <mxCell id="l3h3YgJQ-9_s06tuVZpz-48" value="" style="rounded=0;whiteSpace=wrap;html=1;fillColor=#dae8fc;strokeColor=#6c8ebf;" parent="l3h3YgJQ-9_s06tuVZpz-47" vertex="1">
          <mxGeometry width="40" height="40" as="geometry" />
        </mxCell>
        <mxCell id="l3h3YgJQ-9_s06tuVZpz-49" value="" style="triangle;whiteSpace=wrap;html=1;rotation=-90;fillColor=#dae8fc;strokeColor=#6c8ebf;" parent="l3h3YgJQ-9_s06tuVZpz-47" vertex="1">
          <mxGeometry x="15" y="25" width="10" height="20" as="geometry" />
        </mxCell>
        <mxCell id="l3h3YgJQ-9_s06tuVZpz-50" value="" style="endArrow=none;html=1;rounded=0;exitX=1;exitY=0.5;exitDx=0;exitDy=0;exitPerimeter=0;entryX=0;entryY=0.5;entryDx=0;entryDy=0;" parent="1" source="l3h3YgJQ-9_s06tuVZpz-13" target="l3h3YgJQ-9_s06tuVZpz-48" edge="1">
          <mxGeometry width="50" height="50" relative="1" as="geometry">
            <mxPoint x="410" y="140" as="sourcePoint" />
            <mxPoint x="490" y="110" as="targetPoint" />
            <Array as="points">
              <mxPoint x="500" y="80" />
              <mxPoint x="500" y="30" />
              <mxPoint x="50" y="30" />
              <mxPoint x="50" y="70" />
            </Array>
          </mxGeometry>
        </mxCell>
        <mxCell id="l3h3YgJQ-9_s06tuVZpz-51" value="" style="endArrow=none;html=1;rounded=0;entryX=0;entryY=0.7;entryDx=0;entryDy=0;entryPerimeter=0;" parent="1" target="l3h3YgJQ-9_s06tuVZpz-13" edge="1">
          <mxGeometry width="50" height="50" relative="1" as="geometry">
            <mxPoint x="420" y="130" as="sourcePoint" />
            <mxPoint x="450" y="140" as="targetPoint" />
            <Array as="points">
              <mxPoint x="420" y="90" />
            </Array>
          </mxGeometry>
        </mxCell>
        <mxCell id="l3h3YgJQ-9_s06tuVZpz-52" value="" style="group;fillColor=#dae8fc;strokeColor=#6c8ebf;" parent="1" vertex="1" connectable="0">
          <mxGeometry x="70" y="110" width="40" height="40" as="geometry" />
        </mxCell>
        <mxCell id="l3h3YgJQ-9_s06tuVZpz-53" value="" style="rounded=0;whiteSpace=wrap;html=1;fillColor=#dae8fc;strokeColor=#6c8ebf;" parent="l3h3YgJQ-9_s06tuVZpz-52" vertex="1">
          <mxGeometry width="40" height="40" as="geometry" />
        </mxCell>
        <mxCell id="l3h3YgJQ-9_s06tuVZpz-54" value="" style="triangle;whiteSpace=wrap;html=1;rotation=-90;fillColor=#dae8fc;strokeColor=#6c8ebf;" parent="l3h3YgJQ-9_s06tuVZpz-52" vertex="1">
          <mxGeometry x="15" y="25" width="10" height="20" as="geometry" />
        </mxCell>
        <mxCell id="l3h3YgJQ-9_s06tuVZpz-55" value="" style="endArrow=none;html=1;rounded=0;exitX=0;exitY=0.5;exitDx=0;exitDy=0;" parent="1" source="l3h3YgJQ-9_s06tuVZpz-53" edge="1">
          <mxGeometry width="50" height="50" relative="1" as="geometry">
            <mxPoint x="120" y="130" as="sourcePoint" />
            <mxPoint x="420" y="130" as="targetPoint" />
            <Array as="points">
              <mxPoint x="50" y="130" />
              <mxPoint x="50" y="170" />
              <mxPoint x="420" y="170" />
            </Array>
          </mxGeometry>
        </mxCell>
        <mxCell id="l3h3YgJQ-9_s06tuVZpz-56" value="" style="group;fillColor=#dae8fc;strokeColor=#6c8ebf;" parent="1" vertex="1" connectable="0">
          <mxGeometry x="70" y="180" width="40" height="40" as="geometry" />
        </mxCell>
        <mxCell id="l3h3YgJQ-9_s06tuVZpz-57" value="" style="rounded=0;whiteSpace=wrap;html=1;fillColor=#dae8fc;strokeColor=#6c8ebf;" parent="l3h3YgJQ-9_s06tuVZpz-56" vertex="1">
          <mxGeometry width="40" height="40" as="geometry" />
        </mxCell>
        <mxCell id="l3h3YgJQ-9_s06tuVZpz-58" value="" style="triangle;whiteSpace=wrap;html=1;rotation=-90;fillColor=#dae8fc;strokeColor=#6c8ebf;" parent="l3h3YgJQ-9_s06tuVZpz-56" vertex="1">
          <mxGeometry x="15" y="25" width="10" height="20" as="geometry" />
        </mxCell>
        <mxCell id="l3h3YgJQ-9_s06tuVZpz-60" value="" style="endArrow=none;html=1;rounded=0;exitX=1;exitY=0.5;exitDx=0;exitDy=0;" parent="1" source="l3h3YgJQ-9_s06tuVZpz-61" edge="1">
          <mxGeometry width="50" height="50" relative="1" as="geometry">
            <mxPoint x="110" y="199.82999999999998" as="sourcePoint" />
            <mxPoint x="440" y="200" as="targetPoint" />
          </mxGeometry>
        </mxCell>
        <mxCell id="l3h3YgJQ-9_s06tuVZpz-62" value="" style="endArrow=none;html=1;rounded=0;" parent="1" edge="1">
          <mxGeometry width="50" height="50" relative="1" as="geometry">
            <mxPoint x="420" y="170" as="sourcePoint" />
            <mxPoint x="420" y="180" as="targetPoint" />
          </mxGeometry>
        </mxCell>
        <mxCell id="l3h3YgJQ-9_s06tuVZpz-63" value="" style="endArrow=none;html=1;rounded=0;exitX=1;exitY=0.5;exitDx=0;exitDy=0;" parent="1" target="l3h3YgJQ-9_s06tuVZpz-61" edge="1">
          <mxGeometry width="50" height="50" relative="1" as="geometry">
            <mxPoint x="110" y="199.82999999999998" as="sourcePoint" />
            <mxPoint x="440" y="200" as="targetPoint" />
          </mxGeometry>
        </mxCell>
        <mxCell id="l3h3YgJQ-9_s06tuVZpz-61" value="+1&lt;br&gt;if 0" style="rounded=0;whiteSpace=wrap;html=1;" parent="1" vertex="1">
          <mxGeometry x="400" y="180" width="40" height="40" as="geometry" />
        </mxCell>
        <mxCell id="l3h3YgJQ-9_s06tuVZpz-64" value="" style="endArrow=none;html=1;rounded=0;entryX=1;entryY=0.5;entryDx=0;entryDy=0;exitX=0;exitY=0.5;exitDx=0;exitDy=0;" parent="1" source="l3h3YgJQ-9_s06tuVZpz-57" target="l3h3YgJQ-9_s06tuVZpz-61" edge="1">
          <mxGeometry width="50" height="50" relative="1" as="geometry">
            <mxPoint x="430" y="180" as="sourcePoint" />
            <mxPoint x="430" y="190" as="targetPoint" />
            <Array as="points">
              <mxPoint x="50" y="200" />
              <mxPoint x="50" y="240" />
              <mxPoint x="460" y="240" />
              <mxPoint x="460" y="200" />
            </Array>
          </mxGeometry>
        </mxCell>
        <mxCell id="l3h3YgJQ-9_s06tuVZpz-65" value="" style="group;fillColor=#fff2cc;strokeColor=#d6b656;dashed=1;dashPattern=1 2;" parent="1" vertex="1" connectable="0">
          <mxGeometry x="140" y="190" width="20" height="20" as="geometry" />
        </mxCell>
        <mxCell id="l3h3YgJQ-9_s06tuVZpz-66" value="" style="rounded=0;whiteSpace=wrap;html=1;fillColor=#fff2cc;strokeColor=#d6b656;dashed=1;dashPattern=1 2;" parent="l3h3YgJQ-9_s06tuVZpz-65" vertex="1">
          <mxGeometry width="20" height="20" as="geometry" />
        </mxCell>
        <mxCell id="l3h3YgJQ-9_s06tuVZpz-67" value="" style="triangle;whiteSpace=wrap;html=1;rotation=-90;fillColor=#fff2cc;strokeColor=#d6b656;dashed=1;dashPattern=1 2;" parent="l3h3YgJQ-9_s06tuVZpz-65" vertex="1">
          <mxGeometry x="7.5" y="12.5" width="5" height="10" as="geometry" />
        </mxCell>
        <mxCell id="l3h3YgJQ-9_s06tuVZpz-68" value="" style="group;fillColor=#fff2cc;strokeColor=#d6b656;dashed=1;dashPattern=1 2;" parent="1" vertex="1" connectable="0">
          <mxGeometry x="170" y="190" width="20" height="20" as="geometry" />
        </mxCell>
        <mxCell id="l3h3YgJQ-9_s06tuVZpz-69" value="" style="rounded=0;whiteSpace=wrap;html=1;fillColor=#fff2cc;strokeColor=#d6b656;dashed=1;dashPattern=1 2;" parent="l3h3YgJQ-9_s06tuVZpz-68" vertex="1">
          <mxGeometry width="20" height="20" as="geometry" />
        </mxCell>
        <mxCell id="l3h3YgJQ-9_s06tuVZpz-70" value="" style="triangle;whiteSpace=wrap;html=1;rotation=-90;fillColor=#fff2cc;strokeColor=#d6b656;dashed=1;dashPattern=1 2;" parent="l3h3YgJQ-9_s06tuVZpz-68" vertex="1">
          <mxGeometry x="7.5" y="12.5" width="5" height="10" as="geometry" />
        </mxCell>
        <mxCell id="l3h3YgJQ-9_s06tuVZpz-71" value="" style="group;fillColor=#fff2cc;strokeColor=#d6b656;dashed=1;dashPattern=1 2;" parent="1" vertex="1" connectable="0">
          <mxGeometry x="200" y="190" width="20" height="20" as="geometry" />
        </mxCell>
        <mxCell id="l3h3YgJQ-9_s06tuVZpz-72" value="" style="rounded=0;whiteSpace=wrap;html=1;fillColor=#fff2cc;strokeColor=#d6b656;dashed=1;dashPattern=1 2;" parent="l3h3YgJQ-9_s06tuVZpz-71" vertex="1">
          <mxGeometry width="20" height="20" as="geometry" />
        </mxCell>
        <mxCell id="l3h3YgJQ-9_s06tuVZpz-73" value="" style="triangle;whiteSpace=wrap;html=1;rotation=-90;fillColor=#fff2cc;strokeColor=#d6b656;dashed=1;dashPattern=1 2;" parent="l3h3YgJQ-9_s06tuVZpz-71" vertex="1">
          <mxGeometry x="7.5" y="12.5" width="5" height="10" as="geometry" />
        </mxCell>
        <mxCell id="l3h3YgJQ-9_s06tuVZpz-74" value="" style="group;fillColor=#fff2cc;strokeColor=#d6b656;dashed=1;dashPattern=1 2;" parent="1" vertex="1" connectable="0">
          <mxGeometry x="230" y="190" width="20" height="20" as="geometry" />
        </mxCell>
        <mxCell id="l3h3YgJQ-9_s06tuVZpz-75" value="" style="rounded=0;whiteSpace=wrap;html=1;fillColor=#fff2cc;strokeColor=#d6b656;dashed=1;dashPattern=1 2;" parent="l3h3YgJQ-9_s06tuVZpz-74" vertex="1">
          <mxGeometry width="20" height="20" as="geometry" />
        </mxCell>
        <mxCell id="l3h3YgJQ-9_s06tuVZpz-76" value="" style="triangle;whiteSpace=wrap;html=1;rotation=-90;fillColor=#fff2cc;strokeColor=#d6b656;dashed=1;dashPattern=1 2;" parent="l3h3YgJQ-9_s06tuVZpz-74" vertex="1">
          <mxGeometry x="7.5" y="12.5" width="5" height="10" as="geometry" />
        </mxCell>
        <mxCell id="l3h3YgJQ-9_s06tuVZpz-77" value="" style="group;fillColor=#fff2cc;strokeColor=#d6b656;dashed=1;dashPattern=1 2;" parent="1" vertex="1" connectable="0">
          <mxGeometry x="260" y="190" width="20" height="20" as="geometry" />
        </mxCell>
        <mxCell id="l3h3YgJQ-9_s06tuVZpz-78" value="" style="rounded=0;whiteSpace=wrap;html=1;fillColor=#fff2cc;strokeColor=#d6b656;dashed=1;dashPattern=1 2;" parent="l3h3YgJQ-9_s06tuVZpz-77" vertex="1">
          <mxGeometry width="20" height="20" as="geometry" />
        </mxCell>
        <mxCell id="l3h3YgJQ-9_s06tuVZpz-79" value="" style="triangle;whiteSpace=wrap;html=1;rotation=-90;fillColor=#fff2cc;strokeColor=#d6b656;dashed=1;dashPattern=1 2;" parent="l3h3YgJQ-9_s06tuVZpz-77" vertex="1">
          <mxGeometry x="7.5" y="12.5" width="5" height="10" as="geometry" />
        </mxCell>
        <mxCell id="l3h3YgJQ-9_s06tuVZpz-80" value="" style="group;fillColor=#fff2cc;strokeColor=#d6b656;dashed=1;dashPattern=1 2;" parent="1" vertex="1" connectable="0">
          <mxGeometry x="290" y="190" width="20" height="20" as="geometry" />
        </mxCell>
        <mxCell id="l3h3YgJQ-9_s06tuVZpz-81" value="" style="rounded=0;whiteSpace=wrap;html=1;fillColor=#fff2cc;strokeColor=#d6b656;dashed=1;dashPattern=1 2;" parent="l3h3YgJQ-9_s06tuVZpz-80" vertex="1">
          <mxGeometry width="20" height="20" as="geometry" />
        </mxCell>
        <mxCell id="l3h3YgJQ-9_s06tuVZpz-82" value="" style="triangle;whiteSpace=wrap;html=1;rotation=-90;fillColor=#fff2cc;strokeColor=#d6b656;dashed=1;dashPattern=1 2;" parent="l3h3YgJQ-9_s06tuVZpz-80" vertex="1">
          <mxGeometry x="7.5" y="12.5" width="5" height="10" as="geometry" />
        </mxCell>
        <mxCell id="l3h3YgJQ-9_s06tuVZpz-83" value="" style="group;fillColor=#fff2cc;strokeColor=#d6b656;dashed=1;dashPattern=1 2;" parent="1" vertex="1" connectable="0">
          <mxGeometry x="320" y="190" width="20" height="20" as="geometry" />
        </mxCell>
        <mxCell id="l3h3YgJQ-9_s06tuVZpz-84" value="" style="rounded=0;whiteSpace=wrap;html=1;fillColor=#fff2cc;strokeColor=#d6b656;dashed=1;dashPattern=1 2;" parent="l3h3YgJQ-9_s06tuVZpz-83" vertex="1">
          <mxGeometry width="20" height="20" as="geometry" />
        </mxCell>
        <mxCell id="l3h3YgJQ-9_s06tuVZpz-85" value="" style="triangle;whiteSpace=wrap;html=1;rotation=-90;fillColor=#fff2cc;strokeColor=#d6b656;dashed=1;dashPattern=1 2;" parent="l3h3YgJQ-9_s06tuVZpz-83" vertex="1">
          <mxGeometry x="7.5" y="12.5" width="5" height="10" as="geometry" />
        </mxCell>
        <mxCell id="l3h3YgJQ-9_s06tuVZpz-86" value="" style="group;fillColor=#fff2cc;strokeColor=#d6b656;dashed=1;dashPattern=1 2;" parent="1" vertex="1" connectable="0">
          <mxGeometry x="350" y="190" width="20" height="20" as="geometry" />
        </mxCell>
        <mxCell id="l3h3YgJQ-9_s06tuVZpz-87" value="" style="rounded=0;whiteSpace=wrap;html=1;fillColor=#fff2cc;strokeColor=#d6b656;dashed=1;dashPattern=1 2;" parent="l3h3YgJQ-9_s06tuVZpz-86" vertex="1">
          <mxGeometry width="20" height="20" as="geometry" />
        </mxCell>
        <mxCell id="l3h3YgJQ-9_s06tuVZpz-88" value="" style="triangle;whiteSpace=wrap;html=1;rotation=-90;fillColor=#fff2cc;strokeColor=#d6b656;dashed=1;dashPattern=1 2;" parent="l3h3YgJQ-9_s06tuVZpz-86" vertex="1">
          <mxGeometry x="7.5" y="12.5" width="5" height="10" as="geometry" />
        </mxCell>
        <mxCell id="l3h3YgJQ-9_s06tuVZpz-89" value="Mono&lt;br&gt;Up" style="rounded=0;whiteSpace=wrap;html=1;fillColor=#CFCFCF;" parent="1" vertex="1">
          <mxGeometry x="180" y="110" width="60" height="40" as="geometry" />
        </mxCell>
        <mxCell id="l3h3YgJQ-9_s06tuVZpz-90" value="Mono&lt;br&gt;Down" style="rounded=0;whiteSpace=wrap;html=1;fillColor=#CFCFCF;" parent="1" vertex="1">
          <mxGeometry x="340" y="100" width="60" height="40" as="geometry" />
        </mxCell>
        <mxCell id="l3h3YgJQ-9_s06tuVZpz-91" value="" style="endArrow=none;html=1;rounded=0;" parent="1" edge="1">
          <mxGeometry width="50" height="50" relative="1" as="geometry">
            <mxPoint x="55" y="135" as="sourcePoint" />
            <mxPoint x="65" y="125" as="targetPoint" />
          </mxGeometry>
        </mxCell>
        <mxCell id="l3h3YgJQ-9_s06tuVZpz-93" value="128" style="text;html=1;strokeColor=none;fillColor=none;align=center;verticalAlign=middle;whiteSpace=wrap;rounded=0;fontSize=9;" parent="1" vertex="1">
          <mxGeometry x="50" y="115" width="20" height="10" as="geometry" />
        </mxCell>
        <mxCell id="l3h3YgJQ-9_s06tuVZpz-94" value="" style="endArrow=none;html=1;rounded=0;" parent="1" edge="1">
          <mxGeometry width="50" height="50" relative="1" as="geometry">
            <mxPoint x="55" y="75" as="sourcePoint" />
            <mxPoint x="65" y="65" as="targetPoint" />
          </mxGeometry>
        </mxCell>
        <mxCell id="l3h3YgJQ-9_s06tuVZpz-95" value="128" style="text;html=1;strokeColor=none;fillColor=none;align=center;verticalAlign=middle;whiteSpace=wrap;rounded=0;fontSize=9;" parent="1" vertex="1">
          <mxGeometry x="50" y="55" width="20" height="10" as="geometry" />
        </mxCell>
        <mxCell id="l3h3YgJQ-9_s06tuVZpz-96" value="" style="endArrow=none;html=1;rounded=0;" parent="1" edge="1">
          <mxGeometry width="50" height="50" relative="1" as="geometry">
            <mxPoint x="55" y="205" as="sourcePoint" />
            <mxPoint x="65" y="195" as="targetPoint" />
          </mxGeometry>
        </mxCell>
        <mxCell id="l3h3YgJQ-9_s06tuVZpz-97" value="11" style="text;html=1;strokeColor=none;fillColor=none;align=center;verticalAlign=middle;whiteSpace=wrap;rounded=0;fontSize=9;" parent="1" vertex="1">
          <mxGeometry x="50" y="185" width="20" height="10" as="geometry" />
        </mxCell>
      </root>
    </mxGraphModel>
  </diagram>
</mxfile>
